<?xml version="1.0" encoding="UTF-8" standalone="no"?>
<svg width="32px" height="26px" viewBox="0 0 32 26" version="1.1" xmlns="http://www.w3.org/2000/svg" xmlns:xlink="http://www.w3.org/1999/xlink">
    <!-- Generator: Sketch 44.1 (41455) - http://www.bohemiancoding.com/sketch -->
    <title>Arrow 12</title>
    <desc>Created with Sketch.</desc>
    <defs></defs>
    <g id="Page-2-Copy" stroke="none" stroke-width="1" fill="none" fill-rule="evenodd">
        <g id="46" stroke="#979797" transform="translate(0.000000, -3.000000)" fill-rule="nonzero" fill="#3a8d53">
            <path d="M28.4157766,12.3106464 L16.6044894,0.641086685 C16.1986494,0.248867545 15.5387161,0.248061278 15.1318409,0.639287492 L3.46196695,12.3008285 C2.8068035,12.9307933 3.27081696,14.0079353 4.197358,14.0079353 L10.9802261,14.0086705 C11.5546022,14.0086705 12.0202261,13.5609553 12.0202261,13.0086705 C12.0202261,12.4563858 11.5546022,12.0086705 10.9802261,12.0086705 L4.197358,12.0079353 L4.93274906,13.715042 L16.602623,2.05350105 L15.1299745,2.05170186 L26.9412617,13.7212616 L27.6777551,12.0159543 L21.110059,12.0079362 C20.535683,12.0083419 20.0704013,12.4563859 20.0708233,13.0086705 C20.0712452,13.5609551 20.537211,14.0083414 21.111587,14.0079356 L27.6792831,14.0159537 C28.6041822,14.0153004 29.0681151,12.9410911 28.4157766,12.3106464 Z M10.0236439,19.0322575 L10.0236439,26.0150303 C10.0236439,29.331342 12.713402,32.0236439 16.0236439,32.0236439 C19.3384223,32.0236439 22.0236439,29.3443164 22.0236439,26.0315034 L22.0236439,12.0157844 L20.0236439,12.0157844 L20.0236439,26.0315034 C20.0236439,28.2387619 18.2348354,30.0236439 16.0236439,30.0236439 C13.8183949,30.0236439 12.0236439,28.2271955 12.0236439,26.0150303 L12.0236439,19.0322575 L12.0236439,12.0236439 L10.0236439,12.0236439 L10.0236439,19.0322575 Z" id="Rectangle-449" stroke="none" transform="translate(16.000000, 16.023644) rotate(-270.000000) translate(-16.000000, -16.023644) "></path>
        </g>
    </g>
</svg>